<svg width="11" height="15" viewBox="0 0 11 15" fill="none" xmlns="http://www.w3.org/2000/svg">
<path d="M5.49999 0.416748C2.75874 0.416748 0.541656 2.63383 0.541656 5.37508C0.541656 9.09383 5.49999 14.5834 5.49999 14.5834C5.49999 14.5834 10.4583 9.09383 10.4583 5.37508C10.4583 2.63383 8.24124 0.416748 5.49999 0.416748ZM5.49999 7.14592C5.03034 7.14592 4.57992 6.95935 4.24782 6.62725C3.91573 6.29515 3.72916 5.84474 3.72916 5.37508C3.72916 4.90543 3.91573 4.45501 4.24782 4.12291C4.57992 3.79082 5.03034 3.60425 5.49999 3.60425C5.96965 3.60425 6.42006 3.79082 6.75216 4.12291C7.08425 4.45501 7.27082 4.90543 7.27082 5.37508C7.27082 5.84474 7.08425 6.29515 6.75216 6.62725C6.42006 6.95935 5.96965 7.14592 5.49999 7.14592Z" fill="black"/>
</svg>
