<svg width="20" height="20" viewBox="0 0 20 20" fill="none" xmlns="http://www.w3.org/2000/svg">
<path d="M13.07 0H6.93C1.33 0 0 1.33 0 6.93V13.07C0 18.67 1.33 20 6.93 20H13.07C18.67 20 20 18.67 20 13.07V6.93C20 1.33 18.67 0 13.07 0ZM16.15 14.27H14.69C14.14 14.27 13.97 13.82 13 12.83C12.12 12 11.74 11.88 11.53 11.88C11.24 11.88 11.15 11.96 11.15 12.38V13.69C11.15 14.04 11.04 14.26 10.11 14.26C8.57 14.26 6.86 13.32 5.66 11.59C3.85 9.05 3.36 7.13 3.36 6.75C3.36 6.54 3.43 6.34 3.85 6.34H5.32C5.69 6.34 5.83 6.5 5.97 6.9C6.69 9 7.89 10.8 8.38 10.8C8.57 10.8 8.65 10.71 8.65 10.25V8.1C8.6 7.12 8.07 7.03 8.07 6.68C8.07 6.5 8.21 6.34 8.44 6.34H10.73C11.04 6.34 11.15 6.5 11.15 6.88V9.77C11.15 10.08 11.28 10.19 11.38 10.19C11.56 10.19 11.72 10.08 12.05 9.74C13.1 8.57 13.85 6.76 13.85 6.76C13.95 6.55 14.11 6.35 14.5 6.35H15.93C16.37 6.35 16.47 6.58 16.37 6.89C16.19 7.74 14.41 10.25 14.43 10.25C14.27 10.5 14.21 10.61 14.43 10.9C14.58 11.11 15.09 11.55 15.43 11.94C16.05 12.65 16.53 13.24 16.66 13.65C16.77 14.06 16.57 14.27 16.15 14.27Z" fill="white"/>
</svg>
